<?xml version="1.0" standalone="no"?>
<!DOCTYPE svg PUBLIC "-//W3C//DTD SVG 20010904//EN"
 "http://www.w3.org/TR/2001/REC-SVG-20010904/DTD/svg10.dtd">
<svg version="1.0" xmlns="http://www.w3.org/2000/svg"
 width="1200.000000pt" height="1200.000000pt" viewBox="0 0 1200.000000 1200.000000"
 preserveAspectRatio="xMidYMid meet">

<g transform="translate(0.000000,1200.000000) scale(0.100000,-0.100000)"
fill="#000000" stroke="none">
<path d="M0 6000 l0 -6000 1583 2 c943 1 1487 4 1347 9 -522 16 -871 70 -1200
184 -142 49 -401 177 -535 265 -514 336 -889 850 -1051 1439 -100 364 -134
731 -134 1467 0 345 2 393 16 398 8 3 12 2 9 -4 -4 -6 4 -5 19 1 14 7 22 17
19 25 -5 12 53 51 71 46 16 -5 46 9 41 19 -4 5 1 9 10 9 10 0 13 5 9 12 -5 8
-2 9 9 5 10 -3 17 -2 17 3 0 6 7 10 16 10 8 0 13 4 9 9 -3 6 3 15 14 20 29 16
39 13 17 -4 -11 -8 -15 -15 -9 -15 14 0 35 25 27 33 -9 8 34 28 72 33 26 3 34
0 34 -11 0 -8 -5 -15 -12 -15 -6 0 -9 -2 -6 -5 10 -10 37 7 53 33 16 26 16 26
-2 7 -17 -19 -19 -19 -34 -4 -14 14 -13 17 14 27 16 6 34 9 40 5 6 -3 7 -1 3
5 -4 7 -1 12 9 12 9 0 14 4 11 9 -3 5 1 12 10 15 24 9 31 7 14 -5 -13 -9 -13
-10 0 -6 8 2 15 9 15 16 0 7 11 19 25 26 30 17 43 19 35 5 -3 -6 1 -7 9 -4 9
3 14 10 11 14 -3 5 4 6 15 3 12 -3 22 1 26 11 3 9 10 13 15 10 5 -3 9 0 9 6 0
6 5 8 10 5 6 -3 10 -1 10 5 0 6 5 8 10 5 6 -3 10 0 10 7 0 8 12 19 28 26 34
15 65 34 88 52 16 13 17 13 9 0 -7 -13 -6 -13 11 0 10 9 36 25 57 35 20 11 37
22 37 25 0 3 13 7 30 8 20 2 30 -2 30 -12 0 -23 49 -4 63 24 14 28 47 40 47
16 0 -10 6 -13 15 -10 8 4 12 10 9 15 -3 5 2 6 10 3 9 -3 16 -1 16 6 0 6 5 8
11 5 6 -4 16 1 23 10 11 15 16 16 37 5 22 -12 23 -12 10 4 -13 16 -12 17 14
10 18 -4 26 -3 22 3 -4 6 22 25 58 44 36 18 65 37 65 42 0 4 5 5 11 1 6 -3 14
-2 18 4 4 7 12 8 21 2 11 -7 11 -11 1 -24 -11 -13 -9 -14 21 -6 18 6 34 14 36
19 2 5 12 6 24 3 15 -4 19 -2 13 7 -6 10 -2 11 15 6 17 -5 20 -4 15 5 -5 8 -3
11 6 8 8 -3 16 -24 19 -54 3 -27 4 561 2 1306 -5 2101 14 2474 155 2940 119
395 290 692 558 969 434 448 989 677 1770 731 336 23 798 30 1920 30 1413 0
1862 -12 2205 -60 636 -88 1114 -319 1495 -722 376 -398 583 -890 649 -1538
36 -348 41 -618 41 -2080 0 -1463 -5 -1736 -41 -2078 -72 -695 -312 -1227
-736 -1627 -284 -268 -592 -439 -998 -554 -109 -31 -340 -81 -381 -82 l-24 0
23 -10 c13 -5 29 -6 34 -2 7 3 8 1 4 -5 -3 -6 3 -16 15 -22 11 -7 29 -29 38
-51 10 -21 21 -36 24 -33 4 4 11 -4 16 -17 5 -13 37 -53 70 -88 33 -35 58 -68
55 -73 -3 -5 0 -7 6 -6 7 2 14 -8 16 -22 2 -14 12 -32 22 -40 26 -22 102 -120
102 -132 0 -6 -8 -4 -17 3 -10 8 -6 -1 9 -19 15 -18 33 -51 39 -72 7 -22 18
-40 25 -40 7 0 23 -18 35 -40 13 -22 27 -40 31 -40 5 0 6 -4 3 -10 -3 -5 1
-10 10 -10 11 0 15 -5 12 -15 -4 -8 -2 -17 3 -20 5 -3 7 -12 3 -20 -3 -8 -1
-15 4 -15 6 0 15 -18 22 -40 6 -22 17 -40 24 -40 7 0 25 -21 42 -48 16 -26 32
-49 35 -52 5 -5 8 -9 72 -115 51 -82 59 -101 64 -138 2 -15 13 -44 24 -65 11
-20 29 -58 40 -84 11 -27 25 -48 30 -48 6 0 10 -8 10 -18 0 -10 6 -26 13 -37
8 -11 23 -48 35 -83 17 -52 19 -64 7 -68 -7 -3 -157 -9 -332 -13 -204 -5 297
-8 1400 -9 l1717 -2 0 6000 0 6000 -6000 0 -6000 0 0 -6000z m1477 -1526 c-3
-3 -12 -4 -19 -1 -8 3 -5 6 6 6 11 1 17 -2 13 -5z m-432 -184 c-3 -5 -14 -10
-23 -10 -15 0 -15 2 -2 10 20 13 33 13 25 0z m-175 -40 c-8 -5 -19 -10 -25
-10 -5 0 -3 5 5 10 8 5 20 10 25 10 6 0 3 -5 -5 -10z"/>
<path d="M4470 9589 c-415 -15 -616 -37 -828 -90 -210 -52 -405 -136 -552
-240 -96 -67 -282 -253 -349 -349 -104 -147 -188 -342 -240 -552 -86 -347
-102 -694 -100 -2272 1 -926 10 -1634 17 -1458 2 31 6 42 18 42 9 0 12 5 8 13
-6 9 -3 8 8 -1 9 -8 14 -20 11 -28 -3 -8 0 -14 6 -14 6 0 10 6 8 13 -1 9 25
12 108 10 76 -1 102 1 85 7 -20 8 -16 9 18 5 62 -8 398 8 342 16 -41 5 -39 6
23 7 37 1 67 6 67 12 0 6 18 10 40 10 25 0 39 4 37 12 -5 25 107 29 117 3 3
-9 -18 -15 -77 -21 l-82 -8 120 -7 c66 -4 158 -5 204 -2 70 5 83 4 77 -8 -4
-8 -1 -6 7 4 8 9 25 17 38 16 l24 -1 -25 -9 c-18 -6 -8 -8 37 -6 34 2 60 0 58
-3 -6 -10 129 -22 163 -15 22 4 24 4 7 -4 -18 -9 -17 -10 8 -10 16 -1 37 4 48
9 13 7 19 7 19 0 0 -5 -7 -10 -15 -10 -8 0 -15 -4 -15 -10 0 -5 16 -10 35 -10
19 0 35 -4 35 -9 0 -5 -21 -7 -47 -5 l-48 3 50 -9 c28 -6 61 -8 73 -5 17 4 22
2 16 -6 -5 -9 3 -11 30 -6 25 4 34 2 30 -5 -5 -7 5 -9 32 -4 30 5 35 4 24 -4
-12 -9 -6 -10 25 -5 29 4 36 3 25 -4 -12 -9 -10 -11 9 -11 14 0 38 -12 55 -27
23 -22 21 -17 -10 22 -266 330 -433 720 -490 1145 -18 140 -18 429 1 577 32
245 103 479 214 708 322 660 931 1111 1676 1242 142 25 568 25 710 0 643 -113
1187 -466 1538 -999 344 -522 453 -1184 297 -1793 -66 -257 -157 -466 -298
-680 -319 -488 -810 -834 -1372 -970 -117 -28 -281 -54 -350 -56 -25 -1 -36
-4 -25 -6 11 -3 26 -10 34 -17 11 -8 13 -8 8 0 -4 8 5 13 28 16 27 3 55 -7
124 -43 50 -25 87 -49 84 -53 -6 -6 12 -10 30 -7 4 1 3 -8 -3 -18 -9 -18 -7
-20 20 -16 16 2 33 -1 36 -7 5 -7 2 -8 -6 -3 -9 6 -11 4 -6 -4 5 -7 15 -10 23
-6 14 5 14 3 2 -12 -13 -15 -12 -16 8 -11 15 4 20 2 16 -7 -3 -9 2 -12 14 -9
12 3 25 -2 34 -13 13 -17 13 -17 -4 -4 -14 11 -20 12 -30 2 -7 -7 -7 -12 -2
-11 21 5 35 -1 67 -27 28 -24 30 -24 13 -4 -15 18 -9 16 28 -10 26 -18 43 -35
37 -37 -6 -2 -18 4 -26 14 -14 18 -14 18 -4 -3 6 -13 16 -23 22 -23 7 0 26
-12 42 -27 l31 -28 -25 30 -25 30 28 -24 c15 -14 27 -30 27 -38 0 -7 5 -13 11
-13 5 0 7 5 3 12 -4 7 7 2 24 -11 18 -12 32 -27 32 -33 0 -7 -12 -1 -27 13
-16 13 -22 17 -15 9 21 -24 13 -34 -10 -14 l-23 19 19 -22 c10 -13 22 -20 27
-17 5 3 19 -1 31 -8 13 -7 26 -11 30 -10 3 1 55 -46 115 -104 59 -59 99 -100
88 -93 -11 8 -30 26 -43 42 -13 15 -29 24 -34 20 -7 -4 -8 -1 -3 7 6 9 4 11
-5 5 -9 -5 -11 -4 -6 3 5 8 2 10 -9 6 -13 -5 -10 -11 14 -28 16 -11 47 -36 69
-53 21 -18 41 -31 43 -30 2 1 -1 -2 -7 -7 -7 -6 1 -19 25 -42 29 -26 39 -30
50 -21 12 10 12 9 2 -11 -12 -22 -11 -23 7 -13 22 12 44 -3 35 -25 -3 -8 0
-14 7 -14 6 0 29 -14 50 -32 37 -31 37 -33 22 -58 -11 -17 -11 -21 -2 -12 21
18 29 15 22 -10 -5 -20 -3 -21 10 -10 12 10 17 10 26 -1 9 -10 7 -19 -9 -35
-17 -19 -16 -24 7 -21 4 0 11 -5 15 -13 5 -7 9 -8 9 -2 0 6 6 11 13 11 14 0
17 -11 18 -54 1 -20 3 -21 16 -7 14 13 17 13 34 -1 9 -9 15 -23 13 -30 -3 -7
0 -16 7 -21 8 -5 10 -3 4 6 -6 9 -4 11 5 5 10 -6 7 -13 -11 -27 -23 -19 -23
-19 -1 -8 18 9 22 8 23 -7 0 -16 1 -16 9 2 5 11 9 16 10 10 7 -46 19 -72 21
-44 1 8 4 3 8 -11 4 -14 12 -24 18 -23 5 1 8 -8 6 -21 -3 -13 0 -27 6 -30 7
-5 9 0 5 11 -3 10 4 0 15 -21 12 -22 21 -40 21 -42 0 -6 -56 0 -60 6 -3 4 -11
2 -18 -6 -16 -17 -26 -17 243 -4 624 29 1015 170 1320 475 201 201 323 423
400 730 93 370 109 781 102 2610 -5 1259 -11 1502 -43 1790 -28 256 -88 480
-178 670 -136 287 -376 528 -661 665 -315 152 -565 196 -1239 220 -324 12
-2688 11 -3006 -1z m3998 -724 c270 -64 448 -331 402 -604 -34 -201 -193 -374
-391 -426 -177 -47 -377 9 -509 144 -105 107 -150 218 -150 372 0 144 51 270
151 370 132 132 318 186 497 144z m-5259 -4101 c2 -2 -3 -4 -12 -4 -9 0 -17
-7 -17 -15 0 -9 -9 -15 -25 -15 -26 0 -29 7 -19 34 4 11 14 14 37 9 18 -3 34
-7 36 -9z m119 -1 c-10 -2 -28 -2 -40 0 -13 2 -5 4 17 4 22 1 32 -1 23 -4z
m-608 -18 c0 -2 -10 -9 -22 -15 -22 -11 -22 -10 -4 4 21 17 26 19 26 11z m773
-32 c-7 -2 -21 -2 -30 0 -10 3 -4 5 12 5 17 0 24 -2 18 -5z m-655 -30 c-10 -2
-28 -2 -40 0 -13 2 -5 4 17 4 22 1 32 -1 23 -4z m4304 -1651 c6 -6 13 -19 14
-28 2 -12 -6 -8 -27 12 -16 15 -29 29 -29 30 0 7 32 -4 42 -14z m232 -261 c3
-5 -3 -11 -13 -14 -14 -3 -18 -1 -14 9 6 16 19 18 27 5z m43 -53 c-3 -8 -6 -5
-6 6 -1 11 2 17 5 13 3 -3 4 -12 1 -19z"/>
<path d="M7120 3036 c0 -2 8 -10 18 -17 15 -13 16 -12 3 4 -13 16 -21 21 -21
13z"/>
<path d="M5740 7440 c-58 -10 -152 -35 -210 -55 -499 -174 -855 -580 -967
-1105 -25 -119 -25 -428 0 -553 190 -941 1204 -1453 2064 -1042 422 202 717
582 810 1042 25 124 25 423 0 547 -60 298 -191 542 -406 756 -213 213 -446
340 -741 405 -120 27 -418 30 -550 5z"/>
<path d="M3125 4660 c-3 -5 1 -10 10 -10 9 0 13 5 10 10 -3 6 -8 10 -10 10 -2
0 -7 -4 -10 -10z"/>
<path d="M2513 4653 c15 -2 37 -2 50 0 12 2 0 4 -28 4 -27 0 -38 -2 -22 -4z"/>
<path d="M3505 4640 c-16 -7 -17 -9 -3 -9 9 -1 20 4 23 9 7 11 7 11 -20 0z"/>
<path d="M1197 4337 c-11 -29 -9 -43 4 -30 6 6 9 19 7 29 -3 18 -4 18 -11 1z"/>
<path d="M680 4091 c0 -5 -14 -14 -30 -21 -17 -7 -29 -15 -26 -17 7 -7 66 26
66 37 0 6 -2 10 -5 10 -3 0 -5 -4 -5 -9z"/>
<path d="M95 3800 c-3 -5 -1 -10 4 -10 6 0 11 5 11 10 0 6 -2 10 -4 10 -3 0
-8 -4 -11 -10z"/>
<path d="M6335 3610 c-3 -5 -1 -10 4 -10 6 0 11 5 11 10 0 6 -2 10 -4 10 -3 0
-8 -4 -11 -10z"/>
<path d="M6598 3443 c7 -3 16 -2 19 1 4 3 -2 6 -13 5 -11 0 -14 -3 -6 -6z"/>
<path d="M6864 3272 c-6 -4 2 -18 22 -35 18 -15 35 -24 38 -19 8 13 -47 62
-60 54z m36 -27 c13 -14 21 -25 18 -25 -2 0 -15 11 -28 25 -13 14 -21 25 -18
25 2 0 15 -11 28 -25z"/>
<path d="M6934 3208 c-4 -7 -3 -10 1 -5 5 4 18 -1 29 -10 21 -18 21 -18 2 5
-22 26 -23 26 -32 10z"/>
<path d="M7238 2908 c21 -21 13 -32 -10 -12 -14 11 -11 6 6 -13 16 -18 34 -29
43 -26 11 4 8 12 -13 34 -15 16 -30 29 -33 29 -3 0 0 -5 7 -12z"/>
<path d="M7433 2675 c0 -8 7 -15 15 -15 12 0 12 3 2 15 -7 8 -13 15 -15 15 -1
0 -2 -7 -2 -15z"/>
<path d="M7380 2636 c0 -2 8 -10 18 -17 15 -13 16 -12 3 4 -13 16 -21 21 -21
13z"/>
<path d="M7440 2571 c0 -6 4 -13 10 -16 6 -3 7 1 4 9 -7 18 -14 21 -14 7z"/>
<path d="M7500 2481 c0 -5 5 -13 10 -16 6 -3 10 -2 10 4 0 5 -4 13 -10 16 -5
3 -10 2 -10 -4z"/>
</g>
</svg>
